G75*
%MOIN*%
%OFA0B0*%
%FSLAX24Y24*%
%IPPOS*%
%LPD*%
%AMOC8*
5,1,8,0,0,1.08239X$1,22.5*
%
%ADD10C,0.0000*%
%ADD11C,0.0030*%
%ADD12C,0.0500*%
%ADD13C,0.0100*%
%ADD14C,0.0040*%
%ADD15C,0.0050*%
D10*
X002583Y000180D02*
X002583Y014176D01*
X017953Y014176D01*
X017953Y000180D01*
X002583Y000180D01*
X003300Y001608D02*
X003302Y001658D01*
X003308Y001708D01*
X003318Y001757D01*
X003332Y001805D01*
X003349Y001852D01*
X003370Y001897D01*
X003395Y001941D01*
X003423Y001982D01*
X003455Y002021D01*
X003489Y002058D01*
X003526Y002092D01*
X003566Y002122D01*
X003608Y002149D01*
X003652Y002173D01*
X003698Y002194D01*
X003745Y002210D01*
X003793Y002223D01*
X003843Y002232D01*
X003892Y002237D01*
X003943Y002238D01*
X003993Y002235D01*
X004042Y002228D01*
X004091Y002217D01*
X004139Y002202D01*
X004185Y002184D01*
X004230Y002162D01*
X004273Y002136D01*
X004314Y002107D01*
X004353Y002075D01*
X004389Y002040D01*
X004421Y002002D01*
X004451Y001962D01*
X004478Y001919D01*
X004501Y001875D01*
X004520Y001829D01*
X004536Y001781D01*
X004548Y001732D01*
X004556Y001683D01*
X004560Y001633D01*
X004560Y001583D01*
X004556Y001533D01*
X004548Y001484D01*
X004536Y001435D01*
X004520Y001387D01*
X004501Y001341D01*
X004478Y001297D01*
X004451Y001254D01*
X004421Y001214D01*
X004389Y001176D01*
X004353Y001141D01*
X004314Y001109D01*
X004273Y001080D01*
X004230Y001054D01*
X004185Y001032D01*
X004139Y001014D01*
X004091Y000999D01*
X004042Y000988D01*
X003993Y000981D01*
X003943Y000978D01*
X003892Y000979D01*
X003843Y000984D01*
X003793Y000993D01*
X003745Y001006D01*
X003698Y001022D01*
X003652Y001043D01*
X003608Y001067D01*
X003566Y001094D01*
X003526Y001124D01*
X003489Y001158D01*
X003455Y001195D01*
X003423Y001234D01*
X003395Y001275D01*
X003370Y001319D01*
X003349Y001364D01*
X003332Y001411D01*
X003318Y001459D01*
X003308Y001508D01*
X003302Y001558D01*
X003300Y001608D01*
X003300Y005152D02*
X003302Y005202D01*
X003308Y005252D01*
X003318Y005301D01*
X003332Y005349D01*
X003349Y005396D01*
X003370Y005441D01*
X003395Y005485D01*
X003423Y005526D01*
X003455Y005565D01*
X003489Y005602D01*
X003526Y005636D01*
X003566Y005666D01*
X003608Y005693D01*
X003652Y005717D01*
X003698Y005738D01*
X003745Y005754D01*
X003793Y005767D01*
X003843Y005776D01*
X003892Y005781D01*
X003943Y005782D01*
X003993Y005779D01*
X004042Y005772D01*
X004091Y005761D01*
X004139Y005746D01*
X004185Y005728D01*
X004230Y005706D01*
X004273Y005680D01*
X004314Y005651D01*
X004353Y005619D01*
X004389Y005584D01*
X004421Y005546D01*
X004451Y005506D01*
X004478Y005463D01*
X004501Y005419D01*
X004520Y005373D01*
X004536Y005325D01*
X004548Y005276D01*
X004556Y005227D01*
X004560Y005177D01*
X004560Y005127D01*
X004556Y005077D01*
X004548Y005028D01*
X004536Y004979D01*
X004520Y004931D01*
X004501Y004885D01*
X004478Y004841D01*
X004451Y004798D01*
X004421Y004758D01*
X004389Y004720D01*
X004353Y004685D01*
X004314Y004653D01*
X004273Y004624D01*
X004230Y004598D01*
X004185Y004576D01*
X004139Y004558D01*
X004091Y004543D01*
X004042Y004532D01*
X003993Y004525D01*
X003943Y004522D01*
X003892Y004523D01*
X003843Y004528D01*
X003793Y004537D01*
X003745Y004550D01*
X003698Y004566D01*
X003652Y004587D01*
X003608Y004611D01*
X003566Y004638D01*
X003526Y004668D01*
X003489Y004702D01*
X003455Y004739D01*
X003423Y004778D01*
X003395Y004819D01*
X003370Y004863D01*
X003349Y004908D01*
X003332Y004955D01*
X003318Y005003D01*
X003308Y005052D01*
X003302Y005102D01*
X003300Y005152D01*
X003381Y012834D02*
X003383Y012884D01*
X003389Y012934D01*
X003399Y012983D01*
X003413Y013031D01*
X003430Y013078D01*
X003451Y013123D01*
X003476Y013167D01*
X003504Y013208D01*
X003536Y013247D01*
X003570Y013284D01*
X003607Y013318D01*
X003647Y013348D01*
X003689Y013375D01*
X003733Y013399D01*
X003779Y013420D01*
X003826Y013436D01*
X003874Y013449D01*
X003924Y013458D01*
X003973Y013463D01*
X004024Y013464D01*
X004074Y013461D01*
X004123Y013454D01*
X004172Y013443D01*
X004220Y013428D01*
X004266Y013410D01*
X004311Y013388D01*
X004354Y013362D01*
X004395Y013333D01*
X004434Y013301D01*
X004470Y013266D01*
X004502Y013228D01*
X004532Y013188D01*
X004559Y013145D01*
X004582Y013101D01*
X004601Y013055D01*
X004617Y013007D01*
X004629Y012958D01*
X004637Y012909D01*
X004641Y012859D01*
X004641Y012809D01*
X004637Y012759D01*
X004629Y012710D01*
X004617Y012661D01*
X004601Y012613D01*
X004582Y012567D01*
X004559Y012523D01*
X004532Y012480D01*
X004502Y012440D01*
X004470Y012402D01*
X004434Y012367D01*
X004395Y012335D01*
X004354Y012306D01*
X004311Y012280D01*
X004266Y012258D01*
X004220Y012240D01*
X004172Y012225D01*
X004123Y012214D01*
X004074Y012207D01*
X004024Y012204D01*
X003973Y012205D01*
X003924Y012210D01*
X003874Y012219D01*
X003826Y012232D01*
X003779Y012248D01*
X003733Y012269D01*
X003689Y012293D01*
X003647Y012320D01*
X003607Y012350D01*
X003570Y012384D01*
X003536Y012421D01*
X003504Y012460D01*
X003476Y012501D01*
X003451Y012545D01*
X003430Y012590D01*
X003413Y012637D01*
X003399Y012685D01*
X003389Y012734D01*
X003383Y012784D01*
X003381Y012834D01*
X006925Y012834D02*
X006927Y012884D01*
X006933Y012934D01*
X006943Y012983D01*
X006957Y013031D01*
X006974Y013078D01*
X006995Y013123D01*
X007020Y013167D01*
X007048Y013208D01*
X007080Y013247D01*
X007114Y013284D01*
X007151Y013318D01*
X007191Y013348D01*
X007233Y013375D01*
X007277Y013399D01*
X007323Y013420D01*
X007370Y013436D01*
X007418Y013449D01*
X007468Y013458D01*
X007517Y013463D01*
X007568Y013464D01*
X007618Y013461D01*
X007667Y013454D01*
X007716Y013443D01*
X007764Y013428D01*
X007810Y013410D01*
X007855Y013388D01*
X007898Y013362D01*
X007939Y013333D01*
X007978Y013301D01*
X008014Y013266D01*
X008046Y013228D01*
X008076Y013188D01*
X008103Y013145D01*
X008126Y013101D01*
X008145Y013055D01*
X008161Y013007D01*
X008173Y012958D01*
X008181Y012909D01*
X008185Y012859D01*
X008185Y012809D01*
X008181Y012759D01*
X008173Y012710D01*
X008161Y012661D01*
X008145Y012613D01*
X008126Y012567D01*
X008103Y012523D01*
X008076Y012480D01*
X008046Y012440D01*
X008014Y012402D01*
X007978Y012367D01*
X007939Y012335D01*
X007898Y012306D01*
X007855Y012280D01*
X007810Y012258D01*
X007764Y012240D01*
X007716Y012225D01*
X007667Y012214D01*
X007618Y012207D01*
X007568Y012204D01*
X007517Y012205D01*
X007468Y012210D01*
X007418Y012219D01*
X007370Y012232D01*
X007323Y012248D01*
X007277Y012269D01*
X007233Y012293D01*
X007191Y012320D01*
X007151Y012350D01*
X007114Y012384D01*
X007080Y012421D01*
X007048Y012460D01*
X007020Y012501D01*
X006995Y012545D01*
X006974Y012590D01*
X006957Y012637D01*
X006943Y012685D01*
X006933Y012734D01*
X006927Y012784D01*
X006925Y012834D01*
D11*
X013786Y012382D02*
X014280Y012382D01*
X014218Y012320D02*
X014218Y012444D01*
X014156Y012505D01*
X014095Y012505D01*
X014033Y012444D01*
X014033Y012320D01*
X013971Y012258D01*
X013909Y012258D01*
X013848Y012320D01*
X013848Y012444D01*
X013909Y012505D01*
X014033Y012627D02*
X014033Y012874D01*
X014218Y012812D02*
X013848Y012812D01*
X014033Y012627D01*
X014218Y012320D02*
X014156Y012258D01*
X014156Y012137D02*
X013848Y012137D01*
X014156Y012137D02*
X014218Y012075D01*
X014218Y011952D01*
X014156Y011890D01*
X013848Y011890D01*
X015665Y010180D02*
X015726Y010057D01*
X015850Y009933D01*
X015850Y010119D01*
X015912Y010180D01*
X015973Y010180D01*
X016035Y010119D01*
X016035Y009995D01*
X015973Y009933D01*
X015850Y009933D01*
X015973Y009812D02*
X016035Y009750D01*
X016035Y009627D01*
X015973Y009565D01*
X015726Y009565D01*
X015665Y009627D01*
X015665Y009750D01*
X015726Y009812D01*
X011270Y004721D02*
X011023Y004721D01*
X011023Y004536D01*
X011147Y004597D01*
X011209Y004597D01*
X011270Y004536D01*
X011270Y004412D01*
X011209Y004351D01*
X011085Y004351D01*
X011023Y004412D01*
X010902Y004412D02*
X010840Y004351D01*
X010717Y004351D01*
X010655Y004412D01*
X010655Y004659D01*
X010717Y004721D01*
X010840Y004721D01*
X010902Y004659D01*
X013831Y002180D02*
X013954Y002057D01*
X013893Y001935D02*
X013831Y001873D01*
X013831Y001750D01*
X013893Y001688D01*
X014139Y001688D01*
X014201Y001750D01*
X014201Y001873D01*
X014139Y001935D01*
X014201Y002057D02*
X014201Y002303D01*
X014201Y002180D02*
X013831Y002180D01*
D12*
X007394Y003380D02*
X005937Y003380D01*
X005783Y009369D02*
X005783Y010826D01*
D13*
X002748Y002317D02*
X000150Y002317D01*
X000150Y004443D01*
X002748Y004443D01*
X002748Y006411D01*
X005229Y006411D01*
X005229Y000349D01*
X002748Y000349D01*
X002748Y002317D01*
X005150Y002317D02*
X006016Y002317D01*
X004720Y010747D02*
X004720Y011613D01*
X002752Y011534D02*
X008815Y011534D01*
X008815Y014015D01*
X006846Y014015D01*
X006846Y016613D01*
X004720Y016613D01*
X004720Y014015D01*
X002752Y014015D01*
X002752Y011534D01*
D14*
X005024Y008680D02*
X005255Y008680D01*
X005331Y008603D01*
X005331Y008450D01*
X005255Y008373D01*
X005024Y008373D01*
X005024Y008220D02*
X005024Y008680D01*
X005485Y008680D02*
X005485Y008220D01*
X005792Y008220D01*
X005945Y008220D02*
X006252Y008220D01*
X006099Y008220D02*
X006099Y008680D01*
X005945Y008527D01*
X006406Y008603D02*
X006482Y008680D01*
X006636Y008680D01*
X006713Y008603D01*
X006713Y008527D01*
X006406Y008220D01*
X006713Y008220D01*
X007782Y005860D02*
X008012Y005860D01*
X008089Y005784D01*
X008089Y005630D01*
X008012Y005553D01*
X007782Y005553D01*
X007703Y005660D02*
X007933Y005660D01*
X008010Y005584D01*
X008010Y005430D01*
X007933Y005353D01*
X007703Y005353D01*
X007782Y005400D02*
X007782Y005860D01*
X007703Y005660D02*
X007703Y005200D01*
X007857Y005353D02*
X008010Y005200D01*
X008163Y005200D02*
X008470Y005507D01*
X008470Y005584D01*
X008394Y005660D01*
X008240Y005660D01*
X008163Y005584D01*
X008243Y005707D02*
X008396Y005860D01*
X008396Y005400D01*
X008243Y005400D02*
X008550Y005400D01*
X008470Y005200D02*
X008163Y005200D01*
X008089Y005400D02*
X007936Y005553D01*
X008543Y004310D02*
X008543Y004003D01*
X008543Y004156D02*
X008083Y004156D01*
X008236Y004003D01*
X008543Y003849D02*
X008543Y003542D01*
X008083Y003542D01*
X008160Y003389D02*
X008313Y003389D01*
X008390Y003312D01*
X008390Y003082D01*
X008543Y003082D02*
X008083Y003082D01*
X008083Y003312D01*
X008160Y003389D01*
X009890Y008972D02*
X009575Y009287D01*
X009575Y012988D01*
X011248Y012988D01*
X011928Y012988D02*
X013591Y012988D01*
X013591Y009287D01*
X013276Y008972D01*
X015103Y009779D02*
X015103Y010009D01*
X015179Y010086D01*
X015333Y010086D01*
X015410Y010009D01*
X015410Y009779D01*
X015563Y009779D02*
X015103Y009779D01*
X015410Y009933D02*
X015563Y010086D01*
X015486Y010240D02*
X015563Y010316D01*
X015563Y010470D01*
X015486Y010547D01*
X015410Y010547D01*
X015333Y010470D01*
X015333Y010393D01*
X015333Y010470D02*
X015256Y010547D01*
X015179Y010547D01*
X015103Y010470D01*
X015103Y010316D01*
X015179Y010240D01*
X017405Y007847D02*
X017482Y007847D01*
X017559Y007770D01*
X017636Y007847D01*
X017712Y007847D01*
X017789Y007770D01*
X017789Y007616D01*
X017712Y007540D01*
X017712Y007386D02*
X017636Y007386D01*
X017559Y007309D01*
X017559Y007156D01*
X017482Y007079D01*
X017405Y007079D01*
X017329Y007156D01*
X017329Y007309D01*
X017405Y007386D01*
X017405Y007540D02*
X017329Y007616D01*
X017329Y007770D01*
X017405Y007847D01*
X017559Y007770D02*
X017559Y007693D01*
X017712Y007386D02*
X017789Y007309D01*
X017789Y007156D01*
X017712Y007079D01*
X017712Y006926D02*
X017329Y006926D01*
X017329Y006619D02*
X017712Y006619D01*
X017789Y006696D01*
X017789Y006849D01*
X017712Y006926D01*
X017866Y007233D02*
X017252Y007233D01*
X014818Y002395D02*
X014818Y002089D01*
X014511Y002395D01*
X014435Y002395D01*
X014358Y002319D01*
X014358Y002165D01*
X014435Y002089D01*
X014435Y001935D02*
X014358Y001858D01*
X014358Y001705D01*
X014435Y001628D01*
X014511Y001628D01*
X014588Y001705D01*
X014588Y001858D01*
X014665Y001935D01*
X014741Y001935D01*
X014818Y001858D01*
X014818Y001705D01*
X014741Y001628D01*
X014741Y001475D02*
X014358Y001475D01*
X014358Y001168D02*
X014741Y001168D01*
X014818Y001244D01*
X014818Y001398D01*
X014741Y001475D01*
X014895Y001782D02*
X014281Y001782D01*
X011918Y009061D02*
X012004Y009078D01*
X012089Y009099D01*
X012174Y009123D01*
X012257Y009152D01*
X012339Y009184D01*
X012419Y009220D01*
X012497Y009259D01*
X012574Y009302D01*
X012649Y009349D01*
X012721Y009398D01*
X012791Y009451D01*
X012859Y009507D01*
X012924Y009566D01*
X012987Y009628D01*
X013046Y009693D01*
X013103Y009760D01*
X013156Y009830D01*
X013206Y009902D01*
X013253Y009976D01*
X013297Y010052D01*
X013337Y010131D01*
X013374Y010211D01*
X013407Y010292D01*
X013436Y010375D01*
X013461Y010459D01*
X013483Y010544D01*
X013500Y010630D01*
X013514Y010717D01*
X013524Y010804D01*
X013530Y010892D01*
X013532Y010980D01*
X013530Y011068D01*
X013524Y011156D01*
X013514Y011243D01*
X013500Y011330D01*
X013483Y011416D01*
X013461Y011501D01*
X013436Y011585D01*
X013407Y011668D01*
X013374Y011749D01*
X013337Y011829D01*
X013297Y011908D01*
X013253Y011984D01*
X013206Y012058D01*
X013156Y012130D01*
X013103Y012200D01*
X013046Y012267D01*
X012987Y012332D01*
X012924Y012394D01*
X012859Y012453D01*
X012791Y012509D01*
X012721Y012562D01*
X012649Y012611D01*
X012574Y012658D01*
X012497Y012701D01*
X012419Y012740D01*
X012339Y012776D01*
X012257Y012808D01*
X012174Y012837D01*
X012089Y012861D01*
X012004Y012882D01*
X011918Y012899D01*
X011248Y012899D02*
X011162Y012882D01*
X011077Y012861D01*
X010992Y012837D01*
X010909Y012808D01*
X010827Y012776D01*
X010747Y012740D01*
X010669Y012701D01*
X010592Y012658D01*
X010517Y012611D01*
X010445Y012562D01*
X010375Y012509D01*
X010307Y012453D01*
X010242Y012394D01*
X010179Y012332D01*
X010120Y012267D01*
X010063Y012200D01*
X010010Y012130D01*
X009960Y012058D01*
X009913Y011984D01*
X009869Y011908D01*
X009829Y011829D01*
X009792Y011749D01*
X009759Y011668D01*
X009730Y011585D01*
X009705Y011501D01*
X009683Y011416D01*
X009666Y011330D01*
X009652Y011243D01*
X009642Y011156D01*
X009636Y011068D01*
X009634Y010980D01*
X009636Y010892D01*
X009642Y010804D01*
X009652Y010717D01*
X009666Y010630D01*
X009683Y010544D01*
X009705Y010459D01*
X009730Y010375D01*
X009759Y010292D01*
X009792Y010211D01*
X009829Y010131D01*
X009869Y010052D01*
X009913Y009976D01*
X009960Y009902D01*
X010010Y009830D01*
X010063Y009760D01*
X010120Y009693D01*
X010179Y009628D01*
X010242Y009566D01*
X010307Y009507D01*
X010375Y009451D01*
X010445Y009398D01*
X010517Y009349D01*
X010592Y009302D01*
X010669Y009259D01*
X010747Y009220D01*
X010827Y009184D01*
X010909Y009152D01*
X010992Y009123D01*
X011077Y009099D01*
X011162Y009078D01*
X011248Y009061D01*
D15*
X013175Y008098D02*
X013175Y004673D01*
X014356Y004673D01*
X014996Y003746D02*
X015074Y003746D01*
X014996Y003746D02*
X014996Y001148D01*
X015074Y001148D01*
X016492Y001148D02*
X016570Y001148D01*
X016570Y003746D01*
X016492Y003746D01*
X016010Y004673D02*
X017191Y004673D01*
X017191Y008098D01*
X016010Y008098D01*
X014356Y008098D02*
X013175Y008098D01*
X011810Y004222D02*
X010156Y004222D01*
X010156Y003986D01*
X010235Y004025D02*
X010235Y004064D01*
X010236Y004074D01*
X010240Y004084D01*
X010246Y004092D01*
X010255Y004098D01*
X010264Y004102D01*
X010274Y004103D01*
X010274Y004104D02*
X010314Y004104D01*
X010314Y004103D02*
X010324Y004102D01*
X010334Y004098D01*
X010342Y004092D01*
X010348Y004084D01*
X010352Y004074D01*
X010353Y004064D01*
X010353Y004025D01*
X010352Y004015D01*
X010348Y004006D01*
X010342Y003997D01*
X010334Y003991D01*
X010324Y003987D01*
X010314Y003986D01*
X010274Y003986D01*
X010264Y003987D01*
X010255Y003991D01*
X010246Y003997D01*
X010240Y004006D01*
X010236Y004015D01*
X010235Y004025D01*
X010156Y003710D02*
X010156Y003474D01*
X010156Y003198D02*
X010156Y002962D01*
X010156Y002686D02*
X010156Y002450D01*
X010156Y002174D02*
X010156Y002056D01*
X011810Y002056D01*
X011810Y002174D01*
X011810Y002450D02*
X011810Y002686D01*
X011810Y002962D02*
X011810Y003198D01*
X011810Y003474D02*
X011810Y003671D01*
X011810Y003986D02*
X011810Y004222D01*
M02*
