G75*
%MOIN*%
%OFA0B0*%
%FSLAX24Y24*%
%IPPOS*%
%LPD*%
%AMOC8*
5,1,8,0,0,1.08239X$1,22.5*
%
%ADD10C,0.0000*%
%ADD11C,0.0030*%
D10*
X002583Y000180D02*
X002583Y014176D01*
X017953Y014176D01*
X017953Y000180D01*
X002583Y000180D01*
X003300Y001608D02*
X003302Y001658D01*
X003308Y001708D01*
X003318Y001757D01*
X003332Y001805D01*
X003349Y001852D01*
X003370Y001897D01*
X003395Y001941D01*
X003423Y001982D01*
X003455Y002021D01*
X003489Y002058D01*
X003526Y002092D01*
X003566Y002122D01*
X003608Y002149D01*
X003652Y002173D01*
X003698Y002194D01*
X003745Y002210D01*
X003793Y002223D01*
X003843Y002232D01*
X003892Y002237D01*
X003943Y002238D01*
X003993Y002235D01*
X004042Y002228D01*
X004091Y002217D01*
X004139Y002202D01*
X004185Y002184D01*
X004230Y002162D01*
X004273Y002136D01*
X004314Y002107D01*
X004353Y002075D01*
X004389Y002040D01*
X004421Y002002D01*
X004451Y001962D01*
X004478Y001919D01*
X004501Y001875D01*
X004520Y001829D01*
X004536Y001781D01*
X004548Y001732D01*
X004556Y001683D01*
X004560Y001633D01*
X004560Y001583D01*
X004556Y001533D01*
X004548Y001484D01*
X004536Y001435D01*
X004520Y001387D01*
X004501Y001341D01*
X004478Y001297D01*
X004451Y001254D01*
X004421Y001214D01*
X004389Y001176D01*
X004353Y001141D01*
X004314Y001109D01*
X004273Y001080D01*
X004230Y001054D01*
X004185Y001032D01*
X004139Y001014D01*
X004091Y000999D01*
X004042Y000988D01*
X003993Y000981D01*
X003943Y000978D01*
X003892Y000979D01*
X003843Y000984D01*
X003793Y000993D01*
X003745Y001006D01*
X003698Y001022D01*
X003652Y001043D01*
X003608Y001067D01*
X003566Y001094D01*
X003526Y001124D01*
X003489Y001158D01*
X003455Y001195D01*
X003423Y001234D01*
X003395Y001275D01*
X003370Y001319D01*
X003349Y001364D01*
X003332Y001411D01*
X003318Y001459D01*
X003308Y001508D01*
X003302Y001558D01*
X003300Y001608D01*
X003300Y005152D02*
X003302Y005202D01*
X003308Y005252D01*
X003318Y005301D01*
X003332Y005349D01*
X003349Y005396D01*
X003370Y005441D01*
X003395Y005485D01*
X003423Y005526D01*
X003455Y005565D01*
X003489Y005602D01*
X003526Y005636D01*
X003566Y005666D01*
X003608Y005693D01*
X003652Y005717D01*
X003698Y005738D01*
X003745Y005754D01*
X003793Y005767D01*
X003843Y005776D01*
X003892Y005781D01*
X003943Y005782D01*
X003993Y005779D01*
X004042Y005772D01*
X004091Y005761D01*
X004139Y005746D01*
X004185Y005728D01*
X004230Y005706D01*
X004273Y005680D01*
X004314Y005651D01*
X004353Y005619D01*
X004389Y005584D01*
X004421Y005546D01*
X004451Y005506D01*
X004478Y005463D01*
X004501Y005419D01*
X004520Y005373D01*
X004536Y005325D01*
X004548Y005276D01*
X004556Y005227D01*
X004560Y005177D01*
X004560Y005127D01*
X004556Y005077D01*
X004548Y005028D01*
X004536Y004979D01*
X004520Y004931D01*
X004501Y004885D01*
X004478Y004841D01*
X004451Y004798D01*
X004421Y004758D01*
X004389Y004720D01*
X004353Y004685D01*
X004314Y004653D01*
X004273Y004624D01*
X004230Y004598D01*
X004185Y004576D01*
X004139Y004558D01*
X004091Y004543D01*
X004042Y004532D01*
X003993Y004525D01*
X003943Y004522D01*
X003892Y004523D01*
X003843Y004528D01*
X003793Y004537D01*
X003745Y004550D01*
X003698Y004566D01*
X003652Y004587D01*
X003608Y004611D01*
X003566Y004638D01*
X003526Y004668D01*
X003489Y004702D01*
X003455Y004739D01*
X003423Y004778D01*
X003395Y004819D01*
X003370Y004863D01*
X003349Y004908D01*
X003332Y004955D01*
X003318Y005003D01*
X003308Y005052D01*
X003302Y005102D01*
X003300Y005152D01*
X003381Y012834D02*
X003383Y012884D01*
X003389Y012934D01*
X003399Y012983D01*
X003413Y013031D01*
X003430Y013078D01*
X003451Y013123D01*
X003476Y013167D01*
X003504Y013208D01*
X003536Y013247D01*
X003570Y013284D01*
X003607Y013318D01*
X003647Y013348D01*
X003689Y013375D01*
X003733Y013399D01*
X003779Y013420D01*
X003826Y013436D01*
X003874Y013449D01*
X003924Y013458D01*
X003973Y013463D01*
X004024Y013464D01*
X004074Y013461D01*
X004123Y013454D01*
X004172Y013443D01*
X004220Y013428D01*
X004266Y013410D01*
X004311Y013388D01*
X004354Y013362D01*
X004395Y013333D01*
X004434Y013301D01*
X004470Y013266D01*
X004502Y013228D01*
X004532Y013188D01*
X004559Y013145D01*
X004582Y013101D01*
X004601Y013055D01*
X004617Y013007D01*
X004629Y012958D01*
X004637Y012909D01*
X004641Y012859D01*
X004641Y012809D01*
X004637Y012759D01*
X004629Y012710D01*
X004617Y012661D01*
X004601Y012613D01*
X004582Y012567D01*
X004559Y012523D01*
X004532Y012480D01*
X004502Y012440D01*
X004470Y012402D01*
X004434Y012367D01*
X004395Y012335D01*
X004354Y012306D01*
X004311Y012280D01*
X004266Y012258D01*
X004220Y012240D01*
X004172Y012225D01*
X004123Y012214D01*
X004074Y012207D01*
X004024Y012204D01*
X003973Y012205D01*
X003924Y012210D01*
X003874Y012219D01*
X003826Y012232D01*
X003779Y012248D01*
X003733Y012269D01*
X003689Y012293D01*
X003647Y012320D01*
X003607Y012350D01*
X003570Y012384D01*
X003536Y012421D01*
X003504Y012460D01*
X003476Y012501D01*
X003451Y012545D01*
X003430Y012590D01*
X003413Y012637D01*
X003399Y012685D01*
X003389Y012734D01*
X003383Y012784D01*
X003381Y012834D01*
X006925Y012834D02*
X006927Y012884D01*
X006933Y012934D01*
X006943Y012983D01*
X006957Y013031D01*
X006974Y013078D01*
X006995Y013123D01*
X007020Y013167D01*
X007048Y013208D01*
X007080Y013247D01*
X007114Y013284D01*
X007151Y013318D01*
X007191Y013348D01*
X007233Y013375D01*
X007277Y013399D01*
X007323Y013420D01*
X007370Y013436D01*
X007418Y013449D01*
X007468Y013458D01*
X007517Y013463D01*
X007568Y013464D01*
X007618Y013461D01*
X007667Y013454D01*
X007716Y013443D01*
X007764Y013428D01*
X007810Y013410D01*
X007855Y013388D01*
X007898Y013362D01*
X007939Y013333D01*
X007978Y013301D01*
X008014Y013266D01*
X008046Y013228D01*
X008076Y013188D01*
X008103Y013145D01*
X008126Y013101D01*
X008145Y013055D01*
X008161Y013007D01*
X008173Y012958D01*
X008181Y012909D01*
X008185Y012859D01*
X008185Y012809D01*
X008181Y012759D01*
X008173Y012710D01*
X008161Y012661D01*
X008145Y012613D01*
X008126Y012567D01*
X008103Y012523D01*
X008076Y012480D01*
X008046Y012440D01*
X008014Y012402D01*
X007978Y012367D01*
X007939Y012335D01*
X007898Y012306D01*
X007855Y012280D01*
X007810Y012258D01*
X007764Y012240D01*
X007716Y012225D01*
X007667Y012214D01*
X007618Y012207D01*
X007568Y012204D01*
X007517Y012205D01*
X007468Y012210D01*
X007418Y012219D01*
X007370Y012232D01*
X007323Y012248D01*
X007277Y012269D01*
X007233Y012293D01*
X007191Y012320D01*
X007151Y012350D01*
X007114Y012384D01*
X007080Y012421D01*
X007048Y012460D01*
X007020Y012501D01*
X006995Y012545D01*
X006974Y012590D01*
X006957Y012637D01*
X006943Y012685D01*
X006933Y012734D01*
X006927Y012784D01*
X006925Y012834D01*
D11*
X008427Y002203D02*
X008365Y002142D01*
X008365Y002018D01*
X008427Y001957D01*
X008427Y001835D02*
X008365Y001773D01*
X008365Y001650D01*
X008427Y001588D01*
X008674Y001588D01*
X008735Y001650D01*
X008735Y001773D01*
X008674Y001835D01*
X008674Y001957D02*
X008735Y002018D01*
X008735Y002142D01*
X008674Y002203D01*
X008612Y002203D01*
X008550Y002142D01*
X008488Y002203D01*
X008427Y002203D01*
X008550Y002142D02*
X008550Y002080D01*
X009865Y002142D02*
X010235Y002142D01*
X010050Y001957D01*
X010050Y002203D01*
X009927Y001835D02*
X009865Y001773D01*
X009865Y001650D01*
X009927Y001588D01*
X010174Y001588D01*
X010235Y001650D01*
X010235Y001773D01*
X010174Y001835D01*
X011265Y001773D02*
X011265Y001650D01*
X011327Y001588D01*
X011574Y001588D01*
X011635Y001650D01*
X011635Y001773D01*
X011574Y001835D01*
X011574Y001957D02*
X011635Y002018D01*
X011635Y002142D01*
X011574Y002203D01*
X011512Y002203D01*
X011265Y001957D01*
X011265Y002203D01*
X011327Y001835D02*
X011265Y001773D01*
M02*
