G75*
%MOIN*%
%OFA0B0*%
%FSLAX24Y24*%
%IPPOS*%
%LPD*%
%AMOC8*
5,1,8,0,0,1.08239X$1,22.5*
%
%ADD10R,0.0867X0.0671*%
%ADD11R,0.0592X0.0710*%
%ADD12R,0.0907X0.0907*%
%ADD13C,0.1340*%
%ADD14R,0.0710X0.0790*%
%ADD15R,0.0790X0.0710*%
%ADD16R,0.1237X0.2005*%
%ADD17R,0.0926X0.0257*%
%ADD18R,0.1403X0.1993*%
%ADD19R,0.0631X0.0627*%
%ADD20R,0.1497X0.0986*%
%ADD21R,0.0592X0.1497*%
%ADD22R,0.0730X0.0730*%
D10*
X013383Y001189D03*
X013383Y002371D03*
X016483Y009589D03*
X016483Y010771D03*
D11*
X011377Y005080D03*
X010589Y005080D03*
D12*
X007748Y003380D03*
X005583Y003380D03*
X005783Y009015D03*
X005783Y011180D03*
D13*
X003930Y001608D03*
X003930Y005152D03*
X004011Y012834D03*
X007555Y012834D03*
D14*
X007623Y006380D03*
X008743Y006380D03*
X008743Y004680D03*
X007623Y004680D03*
D15*
X014583Y009620D03*
X014583Y010740D03*
D16*
X010983Y003080D03*
D17*
X009851Y002830D03*
X009851Y002330D03*
X009851Y003330D03*
X009851Y003830D03*
X012115Y003830D03*
X012115Y003330D03*
X012115Y002830D03*
X012115Y002330D03*
D18*
X015783Y002880D03*
D19*
X015421Y001312D03*
X016145Y001312D03*
D20*
X015183Y004811D03*
X015183Y007980D03*
D21*
X011583Y009435D03*
X011583Y012535D03*
D22*
X014683Y012180D03*
X016383Y012180D03*
X013383Y003180D03*
X014383Y000980D03*
M02*
