G75*
%MOIN*%
%OFA0B0*%
%FSLAX24Y24*%
%IPPOS*%
%LPD*%
%AMOC8*
5,1,8,0,0,1.08239X$1,22.5*
%
%ADD10R,0.0787X0.0591*%
%ADD11R,0.0827X0.0827*%
%ADD12C,0.0160*%
%ADD13R,0.0650X0.0650*%
D10*
X009183Y001089D03*
X009183Y002271D03*
X010683Y002271D03*
X010683Y001089D03*
X012083Y001089D03*
X012083Y002271D03*
D11*
X007748Y003380D03*
X005583Y003380D03*
X005783Y009015D03*
X005783Y011180D03*
D12*
X003063Y004448D02*
X003063Y002312D01*
X003248Y002497D01*
X003501Y002643D01*
X003783Y002718D01*
X004076Y002718D01*
X004358Y002643D01*
X004611Y002497D01*
X004818Y002290D01*
X004964Y002037D01*
X005039Y001754D01*
X005039Y001462D01*
X004964Y001180D01*
X004818Y000927D01*
X004611Y000720D01*
X004507Y000660D01*
X008669Y000660D01*
X008645Y000684D01*
X008622Y000725D01*
X008609Y000770D01*
X008609Y001022D01*
X009115Y001022D01*
X009115Y001157D01*
X008609Y001157D01*
X008609Y001280D01*
X007683Y001280D01*
X006383Y002580D01*
X006383Y003880D01*
X007283Y004780D01*
X017473Y004780D01*
X017473Y013696D01*
X008262Y013696D01*
X008443Y013515D01*
X008589Y013262D01*
X008665Y012980D01*
X008665Y012687D01*
X008589Y012405D01*
X008443Y012152D01*
X008236Y011945D01*
X007983Y011799D01*
X007701Y011724D01*
X007409Y011724D01*
X007126Y011799D01*
X006873Y011945D01*
X006667Y012152D01*
X006520Y012405D01*
X006445Y012687D01*
X006445Y012980D01*
X006520Y013262D01*
X006667Y013515D01*
X006848Y013696D01*
X004719Y013696D01*
X004900Y013515D01*
X005046Y013262D01*
X005121Y012980D01*
X005121Y012687D01*
X005046Y012405D01*
X004900Y012152D01*
X004693Y011945D01*
X004440Y011799D01*
X004158Y011724D01*
X003865Y011724D01*
X003583Y011799D01*
X003330Y011945D01*
X003123Y012152D01*
X003063Y012256D01*
X003063Y005855D01*
X003248Y006040D01*
X003501Y006186D01*
X003783Y006262D01*
X004076Y006262D01*
X004358Y006186D01*
X004611Y006040D01*
X004818Y005833D01*
X004964Y005580D01*
X005039Y005298D01*
X005039Y005006D01*
X004964Y004723D01*
X004818Y004470D01*
X004611Y004263D01*
X004358Y004117D01*
X004076Y004042D01*
X003783Y004042D01*
X003501Y004117D01*
X003248Y004263D01*
X003063Y004448D01*
X003063Y004301D02*
X003211Y004301D01*
X003063Y004143D02*
X003458Y004143D01*
X003063Y003984D02*
X006487Y003984D01*
X006383Y003826D02*
X006174Y003826D01*
X006176Y003817D02*
X006164Y003863D01*
X006140Y003904D01*
X006107Y003937D01*
X006066Y003961D01*
X006020Y003973D01*
X005641Y003973D01*
X005641Y003438D01*
X005525Y003438D01*
X005525Y003322D01*
X004990Y003322D01*
X004990Y002943D01*
X005002Y002897D01*
X005026Y002856D01*
X005059Y002823D01*
X005100Y002799D01*
X005146Y002787D01*
X005525Y002787D01*
X005525Y003322D01*
X005641Y003322D01*
X005641Y002787D01*
X006020Y002787D01*
X006066Y002799D01*
X006107Y002823D01*
X006140Y002856D01*
X006164Y002897D01*
X006176Y002943D01*
X006176Y003322D01*
X005641Y003322D01*
X005641Y003438D01*
X006176Y003438D01*
X006176Y003817D01*
X006176Y003667D02*
X006383Y003667D01*
X006383Y003509D02*
X006176Y003509D01*
X006383Y003350D02*
X005641Y003350D01*
X005525Y003350D02*
X003063Y003350D01*
X003063Y003192D02*
X004990Y003192D01*
X004990Y003033D02*
X003063Y003033D01*
X003063Y002875D02*
X005015Y002875D01*
X005525Y002875D02*
X005641Y002875D01*
X005641Y003033D02*
X005525Y003033D01*
X005525Y003192D02*
X005641Y003192D01*
X005525Y003438D02*
X004990Y003438D01*
X004990Y003817D01*
X005002Y003863D01*
X005026Y003904D01*
X005059Y003937D01*
X005100Y003961D01*
X005146Y003973D01*
X005525Y003973D01*
X005525Y003438D01*
X005525Y003509D02*
X005641Y003509D01*
X005641Y003667D02*
X005525Y003667D01*
X005525Y003826D02*
X005641Y003826D01*
X006176Y003192D02*
X006383Y003192D01*
X006383Y003033D02*
X006176Y003033D01*
X006151Y002875D02*
X006383Y002875D01*
X006383Y002716D02*
X004084Y002716D01*
X003775Y002716D02*
X003063Y002716D01*
X003063Y002558D02*
X003354Y002558D01*
X003151Y002399D02*
X003063Y002399D01*
X003063Y003509D02*
X004990Y003509D01*
X004990Y003667D02*
X003063Y003667D01*
X003063Y003826D02*
X004992Y003826D01*
X004649Y004301D02*
X006804Y004301D01*
X006646Y004143D02*
X004401Y004143D01*
X004807Y004460D02*
X006963Y004460D01*
X007121Y004618D02*
X004903Y004618D01*
X004978Y004777D02*
X007280Y004777D01*
X007483Y004480D02*
X015083Y004480D01*
X015083Y001580D01*
X007883Y001580D01*
X006783Y002680D01*
X006783Y003780D01*
X007483Y004480D01*
X007463Y004460D02*
X015083Y004460D01*
X015083Y004301D02*
X007304Y004301D01*
X007146Y004143D02*
X015083Y004143D01*
X015083Y003984D02*
X006987Y003984D01*
X007167Y003863D02*
X007155Y003817D01*
X007155Y003438D01*
X007691Y003438D01*
X007691Y003973D01*
X007311Y003973D01*
X007266Y003961D01*
X007225Y003937D01*
X007191Y003904D01*
X007167Y003863D01*
X007157Y003826D02*
X006829Y003826D01*
X006783Y003667D02*
X007155Y003667D01*
X007155Y003509D02*
X006783Y003509D01*
X006783Y003350D02*
X007691Y003350D01*
X007691Y003322D02*
X007155Y003322D01*
X007155Y002943D01*
X007167Y002897D01*
X007191Y002856D01*
X007225Y002823D01*
X007266Y002799D01*
X007311Y002787D01*
X007691Y002787D01*
X007691Y003322D01*
X007806Y003322D01*
X007806Y002787D01*
X008186Y002787D01*
X008231Y002799D01*
X008272Y002823D01*
X008306Y002856D01*
X008330Y002897D01*
X008342Y002943D01*
X008342Y003322D01*
X007806Y003322D01*
X007806Y003438D01*
X007691Y003438D01*
X007691Y003322D01*
X007806Y003350D02*
X015083Y003350D01*
X015083Y003192D02*
X008342Y003192D01*
X008342Y003033D02*
X015083Y003033D01*
X015083Y002875D02*
X008316Y002875D01*
X008645Y002676D02*
X008622Y002635D01*
X008609Y002590D01*
X008609Y002338D01*
X009115Y002338D01*
X009115Y002203D01*
X008609Y002203D01*
X008609Y001952D01*
X008622Y001906D01*
X008645Y001865D01*
X008679Y001831D01*
X008720Y001808D01*
X008766Y001795D01*
X009115Y001795D01*
X009115Y002203D01*
X009251Y002203D01*
X009251Y002338D01*
X009757Y002338D01*
X009757Y002590D01*
X009745Y002635D01*
X009721Y002676D01*
X009687Y002710D01*
X009646Y002734D01*
X009600Y002746D01*
X009251Y002746D01*
X009251Y002338D01*
X009115Y002338D01*
X009115Y002746D01*
X008766Y002746D01*
X008720Y002734D01*
X008679Y002710D01*
X008645Y002676D01*
X008689Y002716D02*
X006783Y002716D01*
X006783Y002875D02*
X007180Y002875D01*
X007155Y003033D02*
X006783Y003033D01*
X006783Y003192D02*
X007155Y003192D01*
X007691Y003192D02*
X007806Y003192D01*
X007806Y003033D02*
X007691Y003033D01*
X007691Y002875D02*
X007806Y002875D01*
X007806Y003438D02*
X008342Y003438D01*
X008342Y003817D01*
X008330Y003863D01*
X008306Y003904D01*
X008272Y003937D01*
X008231Y003961D01*
X008186Y003973D01*
X007806Y003973D01*
X007806Y003438D01*
X007806Y003509D02*
X007691Y003509D01*
X007691Y003667D02*
X007806Y003667D01*
X007806Y003826D02*
X007691Y003826D01*
X008340Y003826D02*
X015083Y003826D01*
X015083Y003667D02*
X008342Y003667D01*
X008342Y003509D02*
X015083Y003509D01*
X015083Y002716D02*
X012577Y002716D01*
X012587Y002710D02*
X012546Y002734D01*
X012500Y002746D01*
X012151Y002746D01*
X012151Y002338D01*
X012657Y002338D01*
X012657Y002590D01*
X012645Y002635D01*
X012621Y002676D01*
X012587Y002710D01*
X012657Y002558D02*
X015083Y002558D01*
X015083Y002399D02*
X012657Y002399D01*
X012657Y002203D02*
X012657Y001952D01*
X012645Y001906D01*
X012621Y001865D01*
X012587Y001831D01*
X012546Y001808D01*
X012500Y001795D01*
X012151Y001795D01*
X012151Y002203D01*
X012151Y002338D01*
X012015Y002338D01*
X012015Y002203D01*
X011509Y002203D01*
X011509Y001952D01*
X011522Y001906D01*
X011545Y001865D01*
X011579Y001831D01*
X011620Y001808D01*
X011666Y001795D01*
X012015Y001795D01*
X012015Y002203D01*
X012151Y002203D01*
X012657Y002203D01*
X012657Y002082D02*
X015083Y002082D01*
X015083Y001924D02*
X012649Y001924D01*
X012151Y001924D02*
X012015Y001924D01*
X012015Y002082D02*
X012151Y002082D01*
X012151Y002241D02*
X015083Y002241D01*
X015083Y001765D02*
X007698Y001765D01*
X007540Y001924D02*
X008617Y001924D01*
X008609Y002082D02*
X007381Y002082D01*
X007223Y002241D02*
X009115Y002241D01*
X009251Y002241D02*
X010615Y002241D01*
X010615Y002203D02*
X010109Y002203D01*
X010109Y001952D01*
X010122Y001906D01*
X010145Y001865D01*
X010179Y001831D01*
X010220Y001808D01*
X010266Y001795D01*
X010615Y001795D01*
X010615Y002203D01*
X010615Y002338D01*
X010109Y002338D01*
X010109Y002590D01*
X010122Y002635D01*
X010145Y002676D01*
X010179Y002710D01*
X010220Y002734D01*
X010266Y002746D01*
X010615Y002746D01*
X010615Y002338D01*
X010751Y002338D01*
X011257Y002338D01*
X011257Y002590D01*
X011245Y002635D01*
X011221Y002676D01*
X011187Y002710D01*
X011146Y002734D01*
X011100Y002746D01*
X010751Y002746D01*
X010751Y002338D01*
X010751Y002203D01*
X011257Y002203D01*
X011257Y001952D01*
X011245Y001906D01*
X011221Y001865D01*
X011187Y001831D01*
X011146Y001808D01*
X011100Y001795D01*
X010751Y001795D01*
X010751Y002203D01*
X010615Y002203D01*
X010615Y002082D02*
X010751Y002082D01*
X010751Y001924D02*
X010615Y001924D01*
X010751Y002241D02*
X012015Y002241D01*
X012015Y002338D02*
X011509Y002338D01*
X011509Y002590D01*
X011522Y002635D01*
X011545Y002676D01*
X011579Y002710D01*
X011620Y002734D01*
X011666Y002746D01*
X012015Y002746D01*
X012015Y002338D01*
X012015Y002399D02*
X012151Y002399D01*
X012151Y002558D02*
X012015Y002558D01*
X012015Y002716D02*
X012151Y002716D01*
X011589Y002716D02*
X011177Y002716D01*
X011257Y002558D02*
X011509Y002558D01*
X011509Y002399D02*
X011257Y002399D01*
X011257Y002082D02*
X011509Y002082D01*
X011517Y001924D02*
X011249Y001924D01*
X010751Y002399D02*
X010615Y002399D01*
X010615Y002558D02*
X010751Y002558D01*
X010751Y002716D02*
X010615Y002716D01*
X010189Y002716D02*
X009677Y002716D01*
X009757Y002558D02*
X010109Y002558D01*
X010109Y002399D02*
X009757Y002399D01*
X009757Y002203D02*
X009757Y001952D01*
X009745Y001906D01*
X009721Y001865D01*
X009687Y001831D01*
X009646Y001808D01*
X009600Y001795D01*
X009251Y001795D01*
X009251Y002203D01*
X009757Y002203D01*
X009757Y002082D02*
X010109Y002082D01*
X010117Y001924D02*
X009749Y001924D01*
X009251Y001924D02*
X009115Y001924D01*
X009115Y002082D02*
X009251Y002082D01*
X009251Y002399D02*
X009115Y002399D01*
X009115Y002558D02*
X009251Y002558D01*
X009251Y002716D02*
X009115Y002716D01*
X008609Y002558D02*
X006906Y002558D01*
X007064Y002399D02*
X008609Y002399D01*
X007857Y001607D02*
X015083Y001607D01*
X017473Y001280D02*
X017473Y000660D01*
X012597Y000660D01*
X012621Y000684D01*
X012645Y000725D01*
X012657Y000770D01*
X012657Y001022D01*
X012151Y001022D01*
X012151Y001157D01*
X012657Y001157D01*
X012657Y001280D01*
X017473Y001280D01*
X017473Y001131D02*
X012151Y001131D01*
X012015Y001131D02*
X010751Y001131D01*
X010751Y001157D02*
X011257Y001157D01*
X011257Y001280D01*
X011509Y001280D01*
X011509Y001157D01*
X012015Y001157D01*
X012015Y001022D01*
X011509Y001022D01*
X011509Y000770D01*
X011522Y000725D01*
X011545Y000684D01*
X011569Y000660D01*
X011197Y000660D01*
X011221Y000684D01*
X011245Y000725D01*
X011257Y000770D01*
X011257Y001022D01*
X010751Y001022D01*
X010751Y001157D01*
X010615Y001157D02*
X010615Y001022D01*
X010109Y001022D01*
X010109Y000770D01*
X010122Y000725D01*
X010145Y000684D01*
X010169Y000660D01*
X009697Y000660D01*
X009721Y000684D01*
X009745Y000725D01*
X009757Y000770D01*
X009757Y001022D01*
X009251Y001022D01*
X009251Y001157D01*
X009757Y001157D01*
X009757Y001280D01*
X010109Y001280D01*
X010109Y001157D01*
X010615Y001157D01*
X010615Y001131D02*
X009251Y001131D01*
X009115Y001131D02*
X004936Y001131D01*
X004993Y001290D02*
X007674Y001290D01*
X007515Y001448D02*
X005036Y001448D01*
X005039Y001607D02*
X007357Y001607D01*
X007198Y001765D02*
X005037Y001765D01*
X004994Y001924D02*
X007040Y001924D01*
X006881Y002082D02*
X004938Y002082D01*
X004846Y002241D02*
X006723Y002241D01*
X006564Y002399D02*
X004709Y002399D01*
X004505Y002558D02*
X006406Y002558D01*
X004844Y000973D02*
X008609Y000973D01*
X008609Y000814D02*
X004705Y000814D01*
X005021Y004935D02*
X017473Y004935D01*
X017473Y005094D02*
X005039Y005094D01*
X005039Y005252D02*
X017473Y005252D01*
X017473Y005411D02*
X005009Y005411D01*
X004967Y005569D02*
X017473Y005569D01*
X017473Y005728D02*
X004879Y005728D01*
X004765Y005886D02*
X017473Y005886D01*
X017473Y006045D02*
X004603Y006045D01*
X004294Y006203D02*
X017473Y006203D01*
X017473Y006362D02*
X003063Y006362D01*
X003063Y006520D02*
X017473Y006520D01*
X017473Y006679D02*
X003063Y006679D01*
X003063Y006837D02*
X017473Y006837D01*
X017473Y006996D02*
X003063Y006996D01*
X003063Y007154D02*
X017473Y007154D01*
X017473Y007313D02*
X003063Y007313D01*
X003063Y007471D02*
X017473Y007471D01*
X017473Y007630D02*
X003063Y007630D01*
X003063Y007788D02*
X017473Y007788D01*
X017473Y007947D02*
X003063Y007947D01*
X003063Y008105D02*
X017473Y008105D01*
X017473Y008264D02*
X003063Y008264D01*
X003063Y008422D02*
X017473Y008422D01*
X017473Y008581D02*
X006356Y008581D01*
X006356Y008535D02*
X006356Y009494D01*
X006263Y009588D01*
X005303Y009588D01*
X005210Y009494D01*
X005210Y008535D01*
X005303Y008441D01*
X006263Y008441D01*
X006356Y008535D01*
X006356Y008739D02*
X017473Y008739D01*
X017473Y008898D02*
X006356Y008898D01*
X006356Y009056D02*
X017473Y009056D01*
X017473Y009215D02*
X006356Y009215D01*
X006356Y009373D02*
X017473Y009373D01*
X017473Y009532D02*
X006319Y009532D01*
X005247Y009532D02*
X003063Y009532D01*
X003063Y009690D02*
X017473Y009690D01*
X017473Y009849D02*
X003063Y009849D01*
X003063Y010007D02*
X017473Y010007D01*
X017473Y010166D02*
X003063Y010166D01*
X003063Y010324D02*
X017473Y010324D01*
X017473Y010483D02*
X003063Y010483D01*
X003063Y010641D02*
X005241Y010641D01*
X005226Y010656D02*
X005259Y010623D01*
X005300Y010599D01*
X005346Y010587D01*
X005725Y010587D01*
X005725Y011122D01*
X005190Y011122D01*
X005190Y010743D01*
X005202Y010697D01*
X005226Y010656D01*
X005190Y010800D02*
X003063Y010800D01*
X003063Y010958D02*
X005190Y010958D01*
X005190Y011117D02*
X003063Y011117D01*
X003063Y011275D02*
X005190Y011275D01*
X005190Y011238D02*
X005725Y011238D01*
X005725Y011122D01*
X005841Y011122D01*
X005841Y010587D01*
X006220Y010587D01*
X006266Y010599D01*
X006307Y010623D01*
X006340Y010656D01*
X006364Y010697D01*
X006376Y010743D01*
X006376Y011122D01*
X005841Y011122D01*
X005841Y011238D01*
X005725Y011238D01*
X005725Y011773D01*
X005346Y011773D01*
X005300Y011761D01*
X005259Y011737D01*
X005226Y011704D01*
X005202Y011663D01*
X005190Y011617D01*
X005190Y011238D01*
X005190Y011434D02*
X003063Y011434D01*
X003063Y011592D02*
X005190Y011592D01*
X005282Y011751D02*
X004258Y011751D01*
X004630Y011909D02*
X006936Y011909D01*
X006751Y012068D02*
X004815Y012068D01*
X004942Y012226D02*
X006624Y012226D01*
X006532Y012385D02*
X005034Y012385D01*
X005083Y012543D02*
X006483Y012543D01*
X006445Y012702D02*
X005121Y012702D01*
X005121Y012860D02*
X006445Y012860D01*
X006455Y013019D02*
X005111Y013019D01*
X005068Y013177D02*
X006498Y013177D01*
X006563Y013336D02*
X005003Y013336D01*
X004912Y013494D02*
X006654Y013494D01*
X006804Y013653D02*
X004762Y013653D01*
X003081Y012226D02*
X003063Y012226D01*
X003063Y012068D02*
X003208Y012068D01*
X003063Y011909D02*
X003393Y011909D01*
X003063Y011751D02*
X003765Y011751D01*
X005725Y011751D02*
X005841Y011751D01*
X005841Y011773D02*
X005841Y011238D01*
X006376Y011238D01*
X006376Y011617D01*
X006364Y011663D01*
X006340Y011704D01*
X006307Y011737D01*
X006266Y011761D01*
X006220Y011773D01*
X005841Y011773D01*
X005841Y011592D02*
X005725Y011592D01*
X005725Y011434D02*
X005841Y011434D01*
X005841Y011275D02*
X005725Y011275D01*
X005725Y011117D02*
X005841Y011117D01*
X005841Y010958D02*
X005725Y010958D01*
X005725Y010800D02*
X005841Y010800D01*
X005841Y010641D02*
X005725Y010641D01*
X006325Y010641D02*
X017473Y010641D01*
X017473Y010800D02*
X006376Y010800D01*
X006376Y010958D02*
X017473Y010958D01*
X017473Y011117D02*
X006376Y011117D01*
X006376Y011275D02*
X017473Y011275D01*
X017473Y011434D02*
X006376Y011434D01*
X006376Y011592D02*
X017473Y011592D01*
X017473Y011751D02*
X007801Y011751D01*
X008173Y011909D02*
X017473Y011909D01*
X017473Y012068D02*
X008358Y012068D01*
X008486Y012226D02*
X017473Y012226D01*
X017473Y012385D02*
X008577Y012385D01*
X008626Y012543D02*
X017473Y012543D01*
X017473Y012702D02*
X008665Y012702D01*
X008665Y012860D02*
X017473Y012860D01*
X017473Y013019D02*
X008654Y013019D01*
X008612Y013177D02*
X017473Y013177D01*
X017473Y013336D02*
X008547Y013336D01*
X008455Y013494D02*
X017473Y013494D01*
X017473Y013653D02*
X008305Y013653D01*
X007308Y011751D02*
X006284Y011751D01*
X005210Y009373D02*
X003063Y009373D01*
X003063Y009215D02*
X005210Y009215D01*
X005210Y009056D02*
X003063Y009056D01*
X003063Y008898D02*
X005210Y008898D01*
X005210Y008739D02*
X003063Y008739D01*
X003063Y008581D02*
X005210Y008581D01*
X003565Y006203D02*
X003063Y006203D01*
X003063Y006045D02*
X003256Y006045D01*
X003094Y005886D02*
X003063Y005886D01*
X009757Y000973D02*
X010109Y000973D01*
X010109Y000814D02*
X009757Y000814D01*
X011257Y000814D02*
X011509Y000814D01*
X011509Y000973D02*
X011257Y000973D01*
X012657Y000973D02*
X017473Y000973D01*
X017473Y000814D02*
X012657Y000814D01*
D13*
X014383Y000980D03*
X013383Y003180D03*
X014683Y012180D03*
X016383Y012180D03*
M02*
